<mxfile host="app.diagrams.net" modified="2023-02-23T12:40:03.785Z" agent="5.0 (Windows NT 10.0; Win64; x64) AppleWebKit/537.36 (KHTML, like Gecko) Chrome/110.0.0.0 Safari/537.36" etag="ycWlHDPVOC6umkwW_Tuj" version="20.8.20" type="github">
  <diagram name="Strona-1" id="PTDy6k-PCRVezEglHoOV">
    <mxGraphModel dx="1434" dy="796" grid="1" gridSize="10" guides="1" tooltips="1" connect="1" arrows="1" fold="1" page="1" pageScale="1" pageWidth="827" pageHeight="1169" math="0" shadow="0">
      <root>
        <mxCell id="0" />
        <mxCell id="1" parent="0" />
        <mxCell id="daNYqMQuVC4khLHV4V9L-47" style="edgeStyle=orthogonalEdgeStyle;rounded=0;orthogonalLoop=1;jettySize=auto;html=1;entryX=0.5;entryY=0;entryDx=0;entryDy=0;fontSize=24;" edge="1" parent="1" source="daNYqMQuVC4khLHV4V9L-1" target="daNYqMQuVC4khLHV4V9L-44">
          <mxGeometry relative="1" as="geometry" />
        </mxCell>
        <mxCell id="daNYqMQuVC4khLHV4V9L-1" value="&lt;font style=&quot;font-size: 24px;&quot;&gt;Start&lt;br&gt;&lt;/font&gt;" style="ellipse;whiteSpace=wrap;html=1;" vertex="1" parent="1">
          <mxGeometry x="354" y="60" width="120" height="80" as="geometry" />
        </mxCell>
        <mxCell id="daNYqMQuVC4khLHV4V9L-2" value="Stop" style="ellipse;whiteSpace=wrap;html=1;fontSize=24;" vertex="1" parent="1">
          <mxGeometry x="540" y="610" width="120" height="80" as="geometry" />
        </mxCell>
        <mxCell id="daNYqMQuVC4khLHV4V9L-48" style="edgeStyle=orthogonalEdgeStyle;rounded=0;orthogonalLoop=1;jettySize=auto;html=1;entryX=0.5;entryY=0;entryDx=0;entryDy=0;fontSize=24;" edge="1" parent="1" source="daNYqMQuVC4khLHV4V9L-44" target="daNYqMQuVC4khLHV4V9L-45">
          <mxGeometry relative="1" as="geometry" />
        </mxCell>
        <mxCell id="daNYqMQuVC4khLHV4V9L-44" value="i=0&lt;br&gt;iloczyn=0" style="rounded=0;whiteSpace=wrap;html=1;fontSize=24;" vertex="1" parent="1">
          <mxGeometry x="354" y="190" width="120" height="60" as="geometry" />
        </mxCell>
        <mxCell id="daNYqMQuVC4khLHV4V9L-50" style="edgeStyle=orthogonalEdgeStyle;rounded=0;orthogonalLoop=1;jettySize=auto;html=1;entryX=0;entryY=0.5;entryDx=0;entryDy=0;fontSize=24;" edge="1" parent="1" source="daNYqMQuVC4khLHV4V9L-45" target="daNYqMQuVC4khLHV4V9L-49">
          <mxGeometry relative="1" as="geometry" />
        </mxCell>
        <mxCell id="daNYqMQuVC4khLHV4V9L-45" value="i&amp;lt;0 dł." style="rhombus;whiteSpace=wrap;html=1;fontSize=24;" vertex="1" parent="1">
          <mxGeometry x="374" y="320" width="80" height="80" as="geometry" />
        </mxCell>
        <mxCell id="daNYqMQuVC4khLHV4V9L-52" style="edgeStyle=orthogonalEdgeStyle;rounded=0;orthogonalLoop=1;jettySize=auto;html=1;fontSize=24;entryX=0.5;entryY=0;entryDx=0;entryDy=0;" edge="1" parent="1" source="daNYqMQuVC4khLHV4V9L-46" target="daNYqMQuVC4khLHV4V9L-45">
          <mxGeometry relative="1" as="geometry">
            <mxPoint x="230" y="240" as="targetPoint" />
            <Array as="points">
              <mxPoint x="230" y="300" />
              <mxPoint x="414" y="300" />
            </Array>
          </mxGeometry>
        </mxCell>
        <mxCell id="daNYqMQuVC4khLHV4V9L-46" value="" style="rounded=0;whiteSpace=wrap;html=1;fontSize=24;" vertex="1" parent="1">
          <mxGeometry x="170" y="330" width="120" height="60" as="geometry" />
        </mxCell>
        <mxCell id="daNYqMQuVC4khLHV4V9L-51" style="edgeStyle=orthogonalEdgeStyle;rounded=0;orthogonalLoop=1;jettySize=auto;html=1;entryX=0.5;entryY=0;entryDx=0;entryDy=0;fontSize=24;" edge="1" parent="1" source="daNYqMQuVC4khLHV4V9L-49" target="daNYqMQuVC4khLHV4V9L-2">
          <mxGeometry relative="1" as="geometry" />
        </mxCell>
        <mxCell id="daNYqMQuVC4khLHV4V9L-49" value="Wyświetl&amp;nbsp;" style="rounded=0;whiteSpace=wrap;html=1;fontSize=24;" vertex="1" parent="1">
          <mxGeometry x="540" y="330" width="120" height="60" as="geometry" />
        </mxCell>
      </root>
    </mxGraphModel>
  </diagram>
</mxfile>
